<?xml version="1.0" standalone="no"?>
<!DOCTYPE svg PUBLIC "-//W3C//DTD SVG 1.1//EN" "http://www.w3.org/Graphics/SVG/1.1/DTD/svg11.dtd" >
<svg xmlns="http://www.w3.org/2000/svg">
<metadata>Generated by IcoMoon</metadata>
<defs>
<font id="breader" horiz-adv-x="1024">
<font-face units-per-em="1024" ascent="960" descent="-64" />
<missing-glyph horiz-adv-x="1024" />
<glyph unicode="&#x20;" horiz-adv-x="512" d="" />
<glyph unicode="&#xe002;" glyph-name="warning" d="M554 340.667v172h-84v-172h84zM554 170.667v86h-84v-86h84zM42 42.667l470 810 470-810h-940z" />
<glyph unicode="&#xe0b9;" glyph-name="comment" d="M768 596.667v86h-512v-86h512zM768 468.667v86h-512v-86h512zM768 340.667v86h-512v-86h512zM938 768.667v-768l-170 170h-598c-46 0-84 40-84 86v512c0 46 38 84 84 84h684c46 0 84-38 84-84z" />
<glyph unicode="&#xe0e5;" glyph-name="feed" d="M170 508.667c234 0 424-190 424-424h-122c0 166-136 302-302 302v122zM170 748.667c366 0 664-298 664-664h-120c0 300-244 544-544 544v120zM170 178.667c0 52 42 92 94 92s92-40 92-92-40-94-92-94-94 42-94 94z" />
<glyph unicode="&#xe160;" glyph-name="error" d="M554 384.667v256h-84v-256h84zM512 200.667c30 0 56 26 56 56s-26 54-56 54-56-24-56-54 26-56 56-56zM672 810.667l224-224v-320l-224-224h-320l-224 224v320l224 224h320z" />
<glyph unicode="&#xe2c0;" glyph-name="download" d="M726 384.667h-128v170h-172v-170h-128l214-214zM826 510.667c110-8 198-100 198-212 0-118-96-214-214-214h-554c-142 0-256 114-256 256 0 132 100 240 228 254 54 102 160 174 284 174 156 0 284-110 314-258z" />
<glyph unicode="&#xe5c3;" glyph-name="apps" d="M682 84.667v172h172v-172h-172zM682 340.667v172h172v-172h-172zM426 596.667v172h172v-172h-172zM682 768.667h172v-172h-172v172zM426 340.667v172h172v-172h-172zM170 340.667v172h172v-172h-172zM170 84.667v172h172v-172h-172zM426 84.667v172h172v-172h-172zM170 596.667v172h172v-172h-172z" />
<glyph unicode="&#xe5c4;" glyph-name="arrow_back" d="M854 468.667v-84h-520l238-240-60-60-342 342 342 342 60-60-238-240h520z" />
<glyph unicode="&#xe5c8;" glyph-name="arrow_forward" d="M512 768.667l342-342-342-342-60 60 238 240h-520v84h520l-238 240z" />
<glyph unicode="&#xe5d0;" glyph-name="fullscreen" d="M598 724.667h212v-212h-84v128h-128v84zM726 212.667v128h84v-212h-212v84h128zM214 512.667v212h212v-84h-128v-128h-84zM298 340.667v-128h128v-84h-212v212h84z" />
<glyph unicode="&#xe5d1;" glyph-name="unfullscreen" d="M682 596.667h128v-84h-212v212h84v-128zM598 128.667v212h212v-84h-128v-128h-84zM342 596.667v128h84v-212h-212v84h128zM214 256.667v84h212v-212h-84v128h-128z" />
<glyph unicode="&#xe5d8;" glyph-name="arrow_upward" d="M170 426.667l342 342 342-342-62-60-238 238v-520h-84v520l-240-238z" />
<glyph unicode="&#xe5db;" glyph-name="arrow_downward" d="M854 426.667l-342-342-342 342 62 60 238-238v520h84v-520l240 238z" />
<glyph unicode="&#xe80d;" glyph-name="share" d="M768 252.667c68 0 124-56 124-124s-56-126-124-126-124 58-124 126c0 10 0 20 2 28l-302 176c-24-22-54-34-88-34-70 0-128 58-128 128s58 128 128 128c34 0 64-12 88-34l300 174c-2 10-4 20-4 30 0 70 58 128 128 128s128-58 128-128-58-128-128-128c-34 0-64 14-88 36l-300-176c2-10 4-20 4-30s-2-20-4-30l304-176c22 20 52 32 84 32z" />
<glyph unicode="&#xe869;" glyph-name="tool" d="M968 128.667c18-12 18-42-4-60l-98-98c-18-18-42-18-60 0l-388 388c-98-38-212-18-294 64-86 86-108 214-56 316l188-184 128 128-184 184c102 46 230 30 316-56 82-82 102-196 64-294z" />
<glyph unicode="&#xe86a;" glyph-name="refresh" d="M256 426.667h128l-170-170-172 170h128c0 188 154 342 342 342 66 0 130-20 182-54l-62-62c-36 20-76 30-120 30-142 0-256-114-256-256zM810 596.667l172-170h-128c0-188-154-342-342-342-66 0-130 20-182 54l62 62c36-20 76-30 120-30 142 0 256 114 256 256h-128z" />
<glyph unicode="&#xe86e;" glyph-name="volume" d="M256 768.667v-342l106 64 108-64v342h-214zM768 852.667c46 0 86-38 86-84v-684c0-46-40-84-86-84h-512c-46 0-86 38-86 84v684c0 46 40 84 86 84h512z" />
<glyph unicode="&#xe888;" glyph-name="cancel" d="M512 84.667c188 0 342 154 342 342s-154 342-342 342-342-154-342-342 154-342 342-342zM512 852.667c236 0 426-190 426-426s-190-426-426-426-426 190-426 426 190 426 426 426zM622 596.667l60-60-110-110 110-110-60-60-110 110-110-110-60 60 110 110-110 110 60 60 110-110z" />
<glyph unicode="&#xe88f;" glyph-name="info" d="M470 554.667v86h84v-86h-84zM512 84.667c188 0 342 154 342 342s-154 342-342 342-342-154-342-342 154-342 342-342zM512 852.667c236 0 426-190 426-426s-190-426-426-426-426 190-426 426 190 426 426 426zM470 212.667v256h84v-256h-84z" />
<glyph unicode="&#xe897;" glyph-name="lock" d="M644 596.667v86c0 72-60 132-132 132s-132-60-132-132v-86h264zM512 212.667c46 0 86 40 86 86s-40 86-86 86-86-40-86-86 40-86 86-86zM768 596.667c46 0 86-38 86-84v-428c0-46-40-84-86-84h-512c-46 0-86 38-86 84v428c0 46 40 84 86 84h42v86c0 118 96 214 214 214s214-96 214-214v-86h42z" />
<glyph unicode="&#xe89e;" glyph-name="external" d="M598 810.667h298v-298h-86v152l-418-418-60 60 418 418h-152v86zM810 128.667v298h86v-298c0-46-40-86-86-86h-596c-48 0-86 40-86 86v596c0 46 38 86 86 86h298v-86h-298v-596h596z" />
<glyph unicode="&#xe8ac;" glyph-name="power" d="M760 718.667c82-70 136-176 136-292 0-212-172-384-384-384s-384 172-384 384c0 116 54 222 136 292l60-60c-66-54-110-138-110-232 0-166 132-298 298-298s298 132 298 298c0 94-42 176-110 230zM554 810.667v-426h-84v426h84z" />
<glyph unicode="&#xe8b5;" glyph-name="latest" d="M534 640.667v-224l192-114-32-54-224 136v256h64zM512 84.667c188 0 342 154 342 342s-154 342-342 342-342-154-342-342 154-342 342-342zM512 852.667c236 0 426-190 426-426s-190-426-426-426-426 190-426 426 190 426 426 426z" />
<glyph unicode="&#xe8b8;" glyph-name="cog" d="M512 276.667c82 0 150 68 150 150s-68 150-150 150-150-68-150-150 68-150 150-150zM830 384.667l90-70c8-6 10-18 4-28l-86-148c-6-10-16-12-26-8l-106 42c-22-16-46-32-72-42l-16-112c-2-10-10-18-20-18h-172c-10 0-18 8-20 18l-16 112c-26 10-50 24-72 42l-106-42c-10-4-20-2-26 8l-86 148c-6 10-4 22 4 28l90 70c-2 14-2 28-2 42s0 28 2 42l-90 70c-8 6-10 18-4 28l86 148c6 10 16 12 26 8l106-42c22 16 46 32 72 42l16 112c2 10 10 18 20 18h172c10 0 18-8 20-18l16-112c26-10 50-24 72-42l106 42c10 4 20 2 26-8l86-148c6-10 4-22-4-28l-90-70c2-14 2-28 2-42s0-28-2-42z" />
<glyph unicode="&#xe8e6;" glyph-name="bookmarked" d="M726 810.667c46 0 84-40 84-86v-682l-298 128-298-128v682c0 46 38 86 84 86h428z" />
<glyph unicode="&#xe8e7;" glyph-name="bookmark" d="M726 170.667v554h-428v-554l214 94zM726 810.667c46 0 84-40 84-86v-682l-298 128-298-128v682c0 46 38 86 84 86h428z" />
<glyph unicode="&#xe8fd;" glyph-name="help" d="M512 682.667c94 0 170-76 170-170 0-106-128-118-128-214h-84c0 138 128 128 128 214 0 46-40 84-86 84s-86-38-86-84h-84c0 94 76 170 170 170zM512 84.667c188 0 342 154 342 342s-154 342-342 342-342-154-342-342 154-342 342-342zM512 852.667c236 0 426-190 426-426s-190-426-426-426-426 190-426 426 190 426 426 426zM470 170.667v86h84v-86h-84z" />
<glyph unicode="&#xe900;" glyph-name="volumes" d="M854 426.667v342h-214v-342l106 64zM854 852.667c46 0 84-38 84-84v-512c0-46-38-86-84-86h-512c-46 0-86 40-86 86v512c0 46 40 84 86 84h512zM170 682.667v-598h598v-84h-598c-46 0-84 38-84 84v598h84z" />
<glyph unicode="&#xe901;" glyph-name="list" d="M384 724.667h512v-170h-512v170zM384 128.667v170h512v-170h-512zM384 340.667v172h512v-172h-512zM170 554.667v170h172v-170h-172zM170 128.667v170h172v-170h-172zM170 340.667v172h172v-172h-172z" />
<glyph unicode="&#xe902;" glyph-name="search" d="M406 340.667c106 0 192 86 192 192s-86 192-192 192-192-86-192-192 86-192 192-192zM662 340.667l212-212-64-64-212 212v34l-12 12c-48-42-112-66-180-66-154 0-278 122-278 276s124 278 278 278 276-124 276-278c0-68-24-132-66-180l12-12h34z" />
<glyph unicode="&#xe903;" glyph-name="vertical" d="M384 810.667l170-170h-128v-300h-84v300h-128zM682 212.667h128l-170-170-170 170h128v300h84v-300z" />
<glyph unicode="&#xe904;" glyph-name="menu" d="M128 682.667h768v-86h-768v86zM128 384.667v84h768v-84h-768zM128 170.667v86h768v-86h-768z" />
<glyph unicode="&#xe905;" glyph-name="horizontal" d="M896 554.667l-170-170v128h-300v84h300v128zM298 468.667v-128h300v-84h-300v-128l-170 170z" />
<glyph unicode="&#xe906;" glyph-name="single" d="M670 701.667q16 0 27.5-11t11.5-27v-474q0-16-11.5-27t-27.5-11h-316q-16 0-28 11t-12 27v474q0 16 11.5 27t27.5 11h317zM670 780.667h-316q-49 0-83-34.5t-34-82.5v-474q0-49 34.5-83t82.5-34h316q49 0 83 34.5t34 82.5v474q0 49-34 83t-83 34zM478 472.667h-56q-11 0-17 5t-6 18q0 12 7 16.5t24 7.5l16 3q37 8 40.5 34t31.5 26q11 0 18.5-6t7.5-24v-246q0-17-7.5-27.5t-25.5-10.5-25.5 10.5-7.5 27.5v166z" />
<glyph unicode="&#xe907;" glyph-name="spread-rtl" d="M906 701.667q16 0 27.5-11t11.5-27v-474q0-16-11.5-27t-27.5-11h-315q-16 0-28 11t-12 27v474q0 16 11.5 27t28.5 11h315zM906 780.667h-315q-49 0-83.5-34.5t-34.5-82.5v-474q0-49 34.5-83t83.5-34h315q49 0 83.5 34.5t34.5 82.5v474q0 49-34.5 83t-83.5 34zM715 472.667h-57q-10 0-16 5t-6 18q0 12 7 16.5t24 7.5l16 3q36 8 40 34t32 26q10 0 17.5-6t7.5-24v-246q0-17-7.5-27.5t-24.5-10.5q-19 0-26 10.5t-7 27.5v166zM361 327.667q13 0 21-6.5t8-21.5-8.5-21.5-23.5-6.5h-162q-20 0-28 10.5t-8 21.5q0 23 20.5 48t61.5 51q45 29 63 42t18 39q0 22-14 33t-31 11q-21 0-35-10t-22-36q-3-12-8.5-18t-18.5-6q-14 0-23 6t-9 22q0 40 34 67t82 27q52 0 81.5-27t29.5-57q0-43-19-65t-54-42q-36-21-58-35t-27-26h130zM433 701.667q16 0 27.5-11t11.5-27v-474q0-16-11.5-27t-27.5-11h-315q-16 0-28 11t-12 27v474q0 16 11.5 27t28.5 11h315zM433 780.667h-315q-49 0-83.5-34t-34.5-83v-474q0-49 34.5-83t83.5-34h315q49 0 83.5 34.5t34.5 82.5v474q0 49-34.5 83t-83.5 34z" />
<glyph unicode="&#xe908;" glyph-name="thin" d="M709 559.167c0-10.7-3.8-19.8-11.5-27.5s-16.8-11.5-27.5-11.5h-316c-10.7 0-20 3.8-28 11.5s-12 16.8-12 27.5v315h-78v-315c0-32.7 11.5-60.5 34.5-83.5s50.5-34.5 82.5-34.5h316c32.7 0 60.3 11.5 83 34.5s34 50.8 34 83.5v315h-78v-315h1zM447 799.167l-15-3c-11.3-2-19.3-4.7-24-8s-7-9-7-17c0-8.7 2-14.7 6-18s9.7-5 17-5h56v-164c0-11.3 2.5-20.5 7.5-27.5s13.5-10.5 25.5-10.5 20.5 3.5 25.5 10.5 7.5 16.2 7.5 27.5v245c0 12-2.5 20-7.5 24s-11.2 6-18.5 6c-18.7 0-29.3-8.8-32-26.5s-16.3-28.8-41-33.5zM596.5 53.667h-130c3.3 8 12.2 16.8 26.5 26.5s33.8 21.5 58.5 35.5c23.3 12.7 41.3 26.2 54 40.5s19 36.2 19 65.5c0 20-9.8 39.2-29.5 57.5s-46.8 27.5-81.5 27.5c-32 0-59.3-8.8-82-26.5s-34-39.8-34-66.5c0-10.7 3.2-18.2 9.5-22.5s13.8-6.5 22.5-6.5 14.8 2.2 18.5 6.5 6.8 10.5 9.5 18.5c4.7 17.3 11.7 29.3 21 36s21 10 35 10c12 0 22.5-3.8 31.5-11.5s13.5-18.5 13.5-32.5c0-17.3-5.8-30.5-17.5-39.5s-32.8-22.8-63.5-41.5c-26.7-16.7-47-33.5-61-50.5s-21-33.2-21-48.5c0-8 2.8-15.3 8.5-22s14.8-10 27.5-10h163c10 0 17.8 2.2 23.5 6.5s8.5 11.5 8.5 21.5c-0.7 8.7-3.8 15.2-9.5 19.5s-12.5 6.5-20.5 6.5zM315 300.167c0 10.7 3.8 19.8 11.5 27.5s17.2 11.5 28.5 11.5h316c10.7 0 19.8-3.8 27.5-11.5s11.5-16.8 11.5-27.5v-315h78v315c0 32.7-11.5 60.5-34.5 83.5s-50.5 34.5-82.5 34.5h-317c-32.7 0-60.3-11.5-83-34.5s-34-50.8-34-83.5v-315h78v315z" />
<glyph unicode="&#xe909;" glyph-name="wide" horiz-adv-x="1109" d="M159.1 426.667h790.8c34 0 62.3 12.2 84.8 36.5 22.6 24.3 33.8 54.8 33.8 91.5v341h-78.8v-341c0-13.3-3.6-23.8-10.7-31.5s-16.7-11.5-29.1-11.5h-790.8c-11.7 0-21.3 3.8-28.7 11.5s-11.1 18.2-11.1 31.5v341h-78.9v-341c0-36.7 11.4-67.2 34.3-91.5s51-36.5 84.4-36.5zM467.8 813.667l-17-4c-12.7-2-21.5-5.3-26.5-10s-7.5-11.3-7.5-20c0-10.7 2.2-18.3 6.5-23s10.8-7 19.5-7h51v-171c0-12.7 3.8-22.8 11.5-30.5s18.2-11.5 31.5-11.5c12.7 0 22.8 3.8 30.5 11.5s11.5 17.8 11.5 30.5v269c0 10.7-3.3 18.3-10 23s-13.3 7-20 7c-21.3 0-33.7-9.7-37-29s-18-31-44-35zM659.8-5.833c0 10.7-2.8 17-8.5 19s-12.5 3-20.5 3h-141c2 21.3 11 35.7 27 43s36.7 18.3 62 33c26 15.3 45.3 31.2 58 47.5s19 40.5 19 72.5c0 21.3-10.3 42.3-31 63s-50 31-88 31c-34.7 0-64-9.5-88-28.5s-36-42.2-36-69.5c0-10.7 3.5-18.3 10.5-23s14.8-7 23.5-7 15.3 2.2 20 6.5 8 10.5 10 18.5c4 19.3 11.2 32.8 21.5 40.5s23.2 11.5 38.5 11.5c12.7 0 24.3-4.2 35-12.5s16-19.8 16-34.5c0-19.3-6.5-33.8-19.5-43.5s-36.5-25.2-70.5-46.5c-30-19.3-52.3-37.7-67-55s-22-34.7-22-52c0-8 3.2-15.7 9.5-23s15.8-11 28.5-11h175c12.7-2 22.2-2.3 28.5-1s9.5 7.3 9.5 18zM949.9 413.667h-790.8c-33.4 0-61.5-12.2-84.4-36.5s-34.3-54.8-34.3-91.5v-341h78.8v341c0 13.3 3.7 23.8 11.1 31.5s17 11.5 28.7 11.5h790.8c12.4 0 22.1-3.8 29.2-11.5s10.7-18.2 10.7-31.5v-341h78.8v341c0 36.7-11.3 67.2-33.8 91.5s-50.8 36.5-84.8 36.5z" />
<glyph unicode="&#xe90a;" glyph-name="spread-ltr" d="M906 701.667c10.667 0 19.833-3.667 27.5-11s11.5-16.333 11.5-27v-474c0-10.667-3.833-19.667-11.5-27s-16.833-11-27.5-11h-315c-10.667 0-20 3.667-28 11s-12 16.333-12 27v474c0 10.667 3.833 19.667 11.5 27s17.167 11 28.5 11zM906 780.667h-315c-32.667 0-60.5-11.5-83.5-34.5s-34.5-50.5-34.5-82.5v-474c0-32.667 11.5-60.333 34.5-83s50.833-34 83.5-34h315c32.667 0 60.5 11.5 83.5 34.5s34.5 50.5 34.5 82.5v474c0 32.667-11.5 60.333-34.5 83s-50.833 34-83.5 34zM250.442 472.667h-57c-6.667 0-12 1.667-16 5s-6 9.333-6 18c0 8 2.333 13.5 7 16.5s12.667 5.5 24 7.5l16 3c24 5.333 37.333 16.667 40 34s13.333 26 32 26c6.667 0 12.5-2 17.5-6s7.5-12 7.5-24v-246c0-11.333-2.5-20.5-7.5-27.5s-13.167-10.5-24.5-10.5c-12.667 0-21.333 3.5-26 10.5s-7 16.167-7 27.5zM841 327.667c8.667 0 15.667-2.167 21-6.5s8-11.5 8-21.5-2.833-17.167-8.5-21.5c-5.667-4.333-13.5-6.5-23.5-6.5h-162c-13.333 0-22.667 3.5-28 10.5s-8 14.167-8 21.5c0 15.333 6.833 31.333 20.5 48s34.167 33.667 61.5 51c30 19.333 51 33.333 63 42s18 21.667 18 39c0 14.667-4.667 25.667-14 33s-19.667 11-31 11c-14 0-25.667-3.333-35-10s-16.667-18.667-22-36c-2-8-4.833-14-8.5-18s-9.833-6-18.5-6c-9.333 0-17 2-23 6s-9 11.333-9 22c0 26.667 11.333 49 34 67s50 27 82 27c34.667 0 61.833-9 81.5-27s29.5-37 29.5-57c0-28.667-6.333-50.333-19-65s-30.667-28.667-54-42c-24-14-43.333-25.667-58-35s-23.667-18-27-26zM433 701.667c10.667 0 19.833-3.667 27.5-11s11.5-16.333 11.5-27v-474c0-10.667-3.833-19.667-11.5-27s-16.833-11-27.5-11h-315c-10.667 0-20 3.667-28 11s-12 16.333-12 27v474c0 10.667 3.833 19.667 11.5 27s17.167 11 28.5 11zM433 780.667h-315c-32.667 0-60.5-11.333-83.5-34s-34.5-50.333-34.5-83v-474c0-32.667 11.5-60.333 34.5-83s50.833-34 83.5-34h315c32.667 0 60.5 11.5 83.5 34.5s34.5 50.5 34.5 82.5v474c0 32.667-11.5 60.333-34.5 83s-50.833 34-83.5 34z" />
<glyph unicode="&#xe90b;" glyph-name="single-wide" d="M478 472.667h-56c-7.333 0-13 1.667-17 5s-6 9.333-6 18c0 8 2.333 13.5 7 16.5s12.667 5.5 24 7.5l16 3c24.667 5.333 38.167 16.667 40.5 34s12.833 26 31.5 26c7.333 0 13.5-2 18.5-6s7.5-12 7.5-24v-246c0-11.333-2.5-20.5-7.5-27.5s-13.5-10.5-25.5-10.5-20.5 3.5-25.5 10.5-7.5 16.167-7.5 27.5zM900.4 701.667c10.667 0 19.833-3.667 27.5-11s11.5-16.333 11.5-27v-474c0-10.667-3.833-19.667-11.5-27s-16.833-11-27.5-11h-775.294c-10.667 0-20 3.667-28 11s-12 16.333-12 27v474c0 10.667 3.833 19.667 11.5 27s16.833 11 27.5 11zM900.4 780.667h-775.294c-32.667 0-60.333-11.5-83-34.5s-34-50.5-34-82.5v-474c0-32.667 11.5-60.333 34.5-83s50.5-34 82.5-34h775.294c32.667 0 60.333 11.5 83 34.5s34 50.5 34 82.5v474c0 32.667-11.333 60.333-34 83s-50.333 34-83 34z" />
</font>
</defs>
</svg>
