<svg xmlns="http://www.w3.org/2000/svg" width="440" height="286" fill="rgba(0,0,0,0)"><path d="M440 143V0H0v286h440z" fill="#fdfdfd"/><path d="M418.635 284.916c8.544-2.49 18.027-12.232 20.367-20.925.686-2.548.941-43.631.764-123.157L439.5 21.5l-2.256-4.222c-3.364-6.294-7.486-10.542-13.425-13.832L418.5.5h-397l-4.222 2.256C10.984 6.119 6.736 10.242 3.446 16.181L.5 21.5v243l2.946 5.319c3.29 5.939 7.538 10.062 13.832 13.425L21.5 285.5l197 .165c116.519.097 198.28-.209 200.135-.749zM30 143V30h380v226H30zm356 68.5V186h-68v51h68zm-75 .5c0-13.75-.343-25-.762-25s-7.956 7.247-16.75 16.105c-17.323 17.45-20.84 19.838-29.27 19.873-9.118.038-16.168-4.25-20.514-12.478-2.693-5.097-2.903-14.532-.43-19.404.949-1.872 1.726-3.803 1.726-4.292 0-.488-3.488-.757-7.75-.596l-7.75.292-.267 25.25-.267 25.25H311zm-101 3.5V194h-57v43h57zm-71 0V194H55v43h84zm130.5-3.648c3.117-1.693 55.456-54.02 57.066-57.052 2.29-4.314 1.781-9.03-1.448-13.4-1.585-2.145-14.523-15.428-28.75-29.519-21.837-21.626-26.433-25.72-29.495-26.272-9.229-1.663-17.313 6.884-14.8 15.647.626 2.18 6.16 8.462 17.164 19.481L285.477 137h-75.274c-68.24 0-75.508.154-77.79 1.648-5.546 3.635-7.213 12.794-3.245 17.838 4.438 5.642 2.53 5.514 81.985 5.514h73.217l-16.185 16.374c-16.578 16.771-16.944 17.315-16.196 24.126.843 7.676 10.804 12.997 17.511 9.352zM210 178v-6h-75.607l-5.288-2.635c-11.472-5.717-15.794-18.91-9.995-30.508 2.267-4.534 9.154-10.536 13.079-11.398 1.625-.357 2.798-.805 2.608-.996-.19-.19-17.083-4.185-37.54-8.877-20.455-4.692-38.332-8.818-39.725-9.167L55 107.783V184h155zm176-29v-25h-63.442l6.177 6.25C335.817 137.414 338 141.833 338 149s-2.183 11.586-9.265 18.75l-6.177 6.25H386zm-126.5 24c.402-.65-4.823-1-14.941-1-9.706 0-15.559.376-15.559 1 0 .622 5.647 1 14.941 1 8.882 0 15.192-.406 15.559-1zm-1-48c-.366-.592-6.51-1-15.059-1-8.96 0-14.441.38-14.441 1 0 .622 5.686 1 15.059 1 9.785 0 14.843-.35 14.441-1zM210 87.5V49H55v21.941c0 12.068.347 22.155.77 22.417.425.262 32.371 7.714 70.993 16.56 52.114 11.935 71.9 16.082 76.73 16.082H210zm176-7V49H229v63h16.749l-1.966-3.974c-4.057-8.2-3.292-16.263 2.274-23.945 3.58-4.944 11.437-9.056 17.327-9.071 8.998-.023 11.105 1.374 29.674 19.68L310.616 112H386z" fill="silver"/><path d="M297.316 184.25c15.725-15.604 28.52-29.186 29.32-31.037 2.934-6.783 1.784-8.346-27.865-37.858-14.999-14.93-28.254-27.642-29.455-28.25-8.402-4.252-18.258 2.836-16.999 12.224.48 3.579 2.241 5.71 16.61 20.098 8.84 8.852 16.073 16.428 16.073 16.834 0 .406-33.413.746-74.25.754-57.386.011-74.811.298-76.72 1.264-3.192 1.616-7.03 7.33-7.03 10.468 0 3.794 2.734 8.664 5.92 10.547 2.653 1.567 8.968 1.706 77.484 1.706 41.028 0 74.596.343 74.596.762s-7.2 7.95-16 16.737c-16.65 16.626-17.819 18.847-16.448 25.145 1.363 7.216 11.347 10.725 16.53 8.193 10.13-8.54 28.234-27.587 28.234-27.587z"/></svg>