<svg xmlns="http://www.w3.org/2000/svg" width="440" height="286" fill="rgba(0,0,0,0)"><path d="M0 143V0h440v286H0z"/><path d="M21.365 284.916c-8.544-2.49-18.027-12.232-20.367-20.925-.686-2.548-.941-43.631-.764-123.157L.5 21.5l2.256-4.222C6.12 10.984 10.242 6.736 16.181 3.446L21.5.5h397l4.222 2.256c6.294 3.363 10.542 7.486 13.832 13.425L439.5 21.5v243l-2.946 5.319c-3.29 5.939-7.538 10.062-13.832 13.425L418.5 285.5l-197 .165c-116.519.097-198.28-.209-200.135-.749zM410 143V30H30v226h380zM54 211.5V186h68v51H54zm75 .5c0-13.75.343-25 .762-25s7.956 7.247 16.75 16.105c17.323 17.45 20.84 19.838 29.27 19.873 9.118.038 16.168-4.25 20.514-12.478 2.693-5.097 2.903-14.532.43-19.404-.949-1.872-1.726-3.803-1.726-4.292 0-.488 3.488-.757 7.75-.596l7.75.292.267 25.25.267 25.25H129zm101 3.5V194h57v43h-57zm71 0V194h84v43h-84zm-130.5-3.648c-3.117-1.693-55.456-54.02-57.066-57.052-2.29-4.314-1.781-9.03 1.448-13.4 1.585-2.145 14.523-15.428 28.75-29.519 21.837-21.626 26.433-25.72 29.495-26.272 9.229-1.663 17.313 6.884 14.8 15.647-.626 2.18-6.16 8.462-17.164 19.481L154.523 137h75.274c68.24 0 75.508.154 77.79 1.648 5.546 3.635 7.213 12.794 3.245 17.838-4.438 5.642-2.53 5.514-81.985 5.514H155.63l16.185 16.374c16.578 16.771 16.944 17.315 16.196 24.126-.843 7.676-10.804 12.997-17.511 9.352zM230 178v-6h75.607l5.288-2.635c11.472-5.717 15.794-18.91 9.995-30.508-2.267-4.534-9.154-10.536-13.079-11.398-1.625-.357-2.798-.805-2.608-.996.19-.19 17.083-4.185 37.54-8.877 20.455-4.692 38.332-8.818 39.725-9.167l2.532-.636V184H230zM54 149v-25h63.442l-6.177 6.25C104.183 137.414 102 141.833 102 149s2.183 11.586 9.265 18.75l6.177 6.25H54zm126.5 24c-.402-.65 4.823-1 14.941-1 9.706 0 15.559.376 15.559 1 0 .622-5.647 1-14.941 1-8.882 0-15.192-.406-15.559-1zm1-48c.366-.592 6.51-1 15.059-1 8.96 0 14.441.38 14.441 1 0 .622-5.686 1-15.059 1-9.785 0-14.843-.35-14.441-1zM230 87.5V49h155v21.941c0 12.068-.347 22.155-.77 22.417-.425.262-32.371 7.714-70.993 16.56-52.114 11.935-71.9 16.082-76.73 16.082H230zm-176-7V49h157v63H194.251l1.966-3.974c4.057-8.2 3.292-16.263-2.274-23.945-3.58-4.944-11.437-9.056-17.327-9.071-8.998-.023-11.105 1.374-29.674 19.68L129.384 112H54z" fill="silver"/><path d="M142.684 184.25c-15.725-15.604-28.52-29.186-29.32-31.037-2.934-6.783-1.784-8.346 27.865-37.858 14.999-14.93 28.254-27.642 29.455-28.25 8.402-4.252 18.258 2.836 16.999 12.224-.48 3.579-2.241 5.71-16.61 20.098-8.84 8.852-16.073 16.428-16.073 16.834 0 .406 33.413.746 74.25.754 57.386.011 74.811.298 76.72 1.264 3.192 1.616 7.03 7.33 7.03 10.468 0 3.794-2.734 8.664-5.92 10.547-2.653 1.567-8.968 1.706-77.484 1.706-41.028 0-74.596.343-74.596.762s7.2 7.95 16 16.737c16.65 16.626 17.819 18.847 16.448 25.145-1.363 7.216-11.347 10.725-16.53 8.193-10.13-8.54-28.234-27.587-28.234-27.587z" fill="#323232"/></svg>