<svg xmlns="http://www.w3.org/2000/svg" viewBox="0 0 1024 1024"><path d="M478 466h-56c-7.333 0-13-1.667-17-5s-6-9.333-6-18c0-8 2.333-13.5 7-16.5s12.667-5.5 24-7.5l16-3c24.667-5.333 38.167-16.667 40.5-34 2.333-17.333 12.833-26 31.5-26 7.333 0 13.5 2 18.5 6s7.5 12 7.5 24v246c0 11.333-2.5 20.5-7.5 27.5S523 670 511 670s-20.5-3.5-25.5-10.5-7.5-16.167-7.5-27.5z"/><path d="M900.4 237c10.667 0 19.833 3.667 27.5 11 7.667 7.333 11.5 16.333 11.5 27v474c0 10.667-3.833 19.667-11.5 27-7.667 7.333-16.833 11-27.5 11H125.106c-10.667 0-20-3.667-28-11s-12-16.333-12-27V275c0-10.667 3.833-19.667 11.5-27 7.667-7.333 16.833-11 27.5-11zm0-79H125.106c-32.667 0-60.333 11.5-83 34.5s-34 50.5-34 82.5v474c0 32.667 11.5 60.333 34.5 83s50.5 34 82.5 34H900.4c32.667 0 60.333-11.5 83-34.5s34-50.5 34-82.5V275c0-32.667-11.333-60.333-34-83s-50.333-34-83-34z"/></svg>