<svg xmlns="http://www.w3.org/2000/svg" viewBox="0 0 1024 1024"><path d="M906 237c10.667 0 19.833 3.667 27.5 11 7.667 7.333 11.5 16.333 11.5 27v474c0 10.667-3.833 19.667-11.5 27-7.667 7.333-16.833 11-27.5 11H591c-10.667 0-20-3.667-28-11s-12-16.333-12-27V275c0-10.667 3.833-19.667 11.5-27 7.667-7.333 17.167-11 28.5-11zm0-79H591c-32.667 0-60.5 11.5-83.5 34.5S473 243 473 275v474c0 32.667 11.5 60.333 34.5 83s50.833 34 83.5 34h315c32.667 0 60.5-11.5 83.5-34.5S1024 781 1024 749V275c0-32.667-11.5-60.333-34.5-83s-50.833-34-83.5-34zM250.442 466h-57c-6.667 0-12-1.667-16-5s-6-9.333-6-18c0-8 2.333-13.5 7-16.5s12.667-5.5 24-7.5l16-3c24-5.333 37.333-16.667 40-34 2.667-17.333 13.333-26 32-26 6.667 0 12.5 2 17.5 6s7.5 12 7.5 24v246c0 11.333-2.5 20.5-7.5 27.5s-13.167 10.5-24.5 10.5c-12.667 0-21.333-3.5-26-10.5-4.667-7-7-16.167-7-27.5zM841 611c8.667 0 15.667 2.167 21 6.5s8 11.5 8 21.5-2.833 17.167-8.5 21.5c-5.667 4.333-13.5 6.5-23.5 6.5H676c-13.333 0-22.667-3.5-28-10.5-5.333-7-8-14.167-8-21.5 0-15.333 6.833-31.333 20.5-48s34.167-33.667 61.5-51c30-19.333 51-33.333 63-42 12-8.667 18-21.667 18-39 0-14.667-4.667-25.667-14-33-9.333-7.333-19.667-11-31-11-14 0-25.667 3.333-35 10-9.333 6.667-16.667 18.667-22 36-2 8-4.833 14-8.5 18s-9.833 6-18.5 6c-9.333 0-17-2-23-6s-9-11.333-9-22c0-26.667 11.333-49 34-67s50-27 82-27c34.667 0 61.833 9 81.5 27s29.5 37 29.5 57c0 28.667-6.333 50.333-19 65-12.667 14.667-30.667 28.667-54 42-24 14-43.333 25.667-58 35-14.667 9.333-23.667 18-27 26zM433 237c10.667 0 19.833 3.667 27.5 11 7.667 7.333 11.5 16.333 11.5 27v474c0 10.667-3.833 19.667-11.5 27-7.667 7.333-16.833 11-27.5 11H118c-10.667 0-20-3.667-28-11s-12-16.333-12-27V275c0-10.667 3.833-19.667 11.5-27 7.667-7.333 17.167-11 28.5-11zm0-79H118c-32.667 0-60.5 11.333-83.5 34S0 242.333 0 275v474c0 32.667 11.5 60.333 34.5 83s50.833 34 83.5 34h315c32.667 0 60.5-11.5 83.5-34.5S551 781 551 749V275c0-32.667-11.5-60.333-34.5-83s-50.833-34-83.5-34z"/></svg>