<svg xmlns="http://www.w3.org/2000/svg" viewBox="0 0 1024 1024"><path d="M906 237q16 0 27.5 11t11.5 27v474q0 16-11.5 27T906 787H591q-16 0-28-11t-12-27V275q0-16 11.5-27t28.5-11h315zm0-79H591q-49 0-83.5 34.5T473 275v474q0 49 34.5 83t83.5 34h315q49 0 83.5-34.5T1024 749V275q0-49-34.5-83T906 158zM715 466h-57q-10 0-16-5t-6-18q0-12 7-16.5t24-7.5l16-3q36-8 40-34t32-26q10 0 17.5 6t7.5 24v246q0 17-7.5 27.5T748 670q-19 0-26-10.5t-7-27.5V466zM361 611q13 0 21 6.5t8 21.5-8.5 21.5T358 667H196q-20 0-28-10.5t-8-21.5q0-23 20.5-48t61.5-51q45-29 63-42t18-39q0-22-14-33t-31-11q-21 0-35 10t-22 36q-3 12-8.5 18t-18.5 6q-14 0-23-6t-9-22q0-40 34-67t82-27q52 0 81.5 27t29.5 57q0 43-19 65t-54 42q-36 21-58 35t-27 26h130zm72-374q16 0 27.5 11t11.5 27v474q0 16-11.5 27T433 787H118q-16 0-28-11t-12-27V275q0-16 11.5-27t28.5-11h315zm0-79H118q-49 0-83.5 34T0 275v474q0 49 34.5 83t83.5 34h315q49 0 83.5-34.5T551 749V275q0-49-34.5-83T433 158z"/></svg>