<svg xmlns="http://www.w3.org/2000/svg" viewBox="0 0 1024 1024"><path d="M709 379.5c0 10.7-3.8 19.8-11.5 27.5s-16.8 11.5-27.5 11.5H354c-10.7 0-20-3.8-28-11.5s-12-16.8-12-27.5v-315h-78v315c0 32.7 11.5 60.5 34.5 83.5s50.5 34.5 82.5 34.5h316c32.7 0 60.3-11.5 83-34.5s34-50.8 34-83.5v-315h-78v315h1zm-262-240l-15 3c-11.3 2-19.3 4.7-24 8-4.7 3.3-7 9-7 17 0 8.7 2 14.7 6 18s9.7 5 17 5h56v164c0 11.3 2.5 20.5 7.5 27.5s13.5 10.5 25.5 10.5 20.5-3.5 25.5-10.5 7.5-16.2 7.5-27.5v-245c0-12-2.5-20-7.5-24s-11.2-6-18.5-6c-18.7 0-29.3 8.8-32 26.5s-16.3 28.8-41 33.5zM596.5 885h-130c3.3-8 12.2-16.8 26.5-26.5s33.8-21.5 58.5-35.5c23.3-12.7 41.3-26.2 54-40.5s19-36.2 19-65.5c0-20-9.8-39.2-29.5-57.5S548.2 632 513.5 632c-32 0-59.3 8.8-82 26.5s-34 39.8-34 66.5c0 10.7 3.2 18.2 9.5 22.5s13.8 6.5 22.5 6.5 14.8-2.2 18.5-6.5 6.8-10.5 9.5-18.5c4.7-17.3 11.7-29.3 21-36s21-10 35-10c12 0 22.5 3.8 31.5 11.5s13.5 18.5 13.5 32.5c0 17.3-5.8 30.5-17.5 39.5s-32.8 22.8-63.5 41.5c-26.7 16.7-47 33.5-61 50.5s-21 33.2-21 48.5c0 8 2.8 15.3 8.5 22s14.8 10 27.5 10h163c10 0 17.8-2.2 23.5-6.5s8.5-11.5 8.5-21.5c-.7-8.7-3.8-15.2-9.5-19.5s-12.5-6.5-20.5-6.5zM315 638.5c0-10.7 3.8-19.8 11.5-27.5s17.2-11.5 28.5-11.5h316c10.7 0 19.8 3.8 27.5 11.5s11.5 16.8 11.5 27.5v315h78v-315c0-32.7-11.5-60.5-34.5-83.5S703 520.5 671 520.5H354c-32.7 0-60.3 11.5-83 34.5s-34 50.8-34 83.5v315h78v-315z"/></svg>