<svg xmlns="http://www.w3.org/2000/svg" width="289" height="398" fill="rgba(0,0,0,0)"><path d="M0 199V-1.5h289v401H0z"/><path d="M20.332 397.657C10.283 394.168 3.157 386.236.987 376.122.205 372.478-.023 320.487.194 196L.5 21l2.106-4.55C5.684 9.795 10.38 4.95 16.818 1.79L22.5-1h244l5.682 2.79c6.437 3.161 11.134 8.006 14.212 14.66L288.5 21v356l-2.106 4.55c-3.078 6.654-7.775 11.499-14.212 14.66L266.5 399l-120.5.226c-113.638.212-120.794.123-125.668-1.569zM259 199V28.5H30v341h229zM49 303.5v-40H87.517l21.492 21.604c13.447 13.518 22.988 22.305 25.491 23.478 5.311 2.489 14.689 2.489 20 0 2.503-1.173 12.044-9.96 25.491-23.478l21.492-21.604H239v80H49zm89.5-4.552c-3.39-1.74-51.14-48.843-55.602-54.848-2.183-2.937-2.898-5.003-2.898-8.368 0-3.856.531-4.999 3.882-8.35 3.432-3.431 4.44-3.882 8.684-3.882h4.8l16.605 16.5c9.132 9.075 16.924 16.5 17.316 16.5.392 0 .713-33.793.713-75.096 0-68.987.139-75.33 1.706-77.984 3.327-5.632 11.232-7.475 16.995-3.96 6.59 4.018 6.299.188 6.299 82.729v74.788l15.75-15.631c8.663-8.598 16.733-16.13 17.934-16.739 8.775-4.448 20.272 4.836 17.903 14.457-.497 2.021-9.345 11.603-28.405 30.759-15.225 15.302-28.897 28.465-30.382 29.25-3.496 1.847-7.544 1.803-11.3-.125zM49 190.893c0-44.063.26-55.512 1.25-55.15.688.252 16.887 3.326 36 6.832L121 148.95v82.905l-8.25-8.03c-8.89-8.653-12.936-10.714-20.84-10.617-14.908.183-24.913 13.86-21.61 29.542l.79 3.75H49zm168.532 53.857c.41-.963.962-4.335 1.227-7.495 1.202-14.368-12.165-26.507-26.259-23.847-6.084 1.148-9.908 3.535-18.053 11.272L167 231.754V157.341l2.75.589c5.217 1.117 67.526 12.57 68.387 12.57.475 0 .863 17.1.863 38v38h-11.107c-10.196 0-11.046-.144-10.361-1.75zM203 148.138L167.5 141l-.5-19.577c-.493-19.317-.537-19.633-3.259-23.742-4.181-6.312-9.719-9.521-17.259-10.001-7.535-.48-12.455.98-17.127 5.081-6.502 5.71-7.758 9.547-8.175 24.989-.205 7.563-.603 13.75-.887 13.75-.88 0-67.692-13.093-69.543-13.629-1.62-.468-1.75-2.886-1.75-32.438V53.5h190v51c0 28.05-.113 50.95-.25 50.888-.138-.062-16.225-3.325-35.75-7.25z" fill="silver"/><path d="M140.5 299.442c-1.992-.584-12.463-10.378-31.175-29.16-24.165-24.256-28.272-28.81-28.854-31.989-1.495-8.18 6.156-15.825 14.322-14.313 3.08.57 6.536 3.496 20.457 17.315L132 257.923V106.796l2.287-3.398c3.315-4.927 8.742-6.54 14.545-4.325 3.48 1.33 4.759 2.517 6.25 5.8 1.778 3.915 1.875 7.951 1.896 78.589l.022 74.461 16.75-16.577c17.63-17.447 19.747-18.827 25.818-16.824 8.381 2.766 11.04 12.169 5.535 19.578-5.764 7.757-52.5 53.285-56.32 54.864-4.137 1.709-4.086 1.706-8.283.478z" fill="#333"/></svg>