<svg xmlns="http://www.w3.org/2000/svg" viewBox="0 0 1109 1024"><path d="M159.1 512h790.8c34 0 62.3-12.2 84.8-36.5 22.6-24.3 33.8-54.8 33.8-91.5V43h-78.8v341c0 13.3-3.6 23.8-10.7 31.5S962.3 427 949.9 427H159.1c-11.7 0-21.3-3.8-28.7-11.5-7.4-7.7-11.1-18.2-11.1-31.5V43H40.4v341c0 36.7 11.4 67.2 34.3 91.5s51 36.5 84.4 36.5zm308.7-387l-17 4c-12.7 2-21.5 5.3-26.5 10s-7.5 11.3-7.5 20c0 10.7 2.2 18.3 6.5 23 4.3 4.7 10.8 7 19.5 7h51v171c0 12.7 3.8 22.8 11.5 30.5s18.2 11.5 31.5 11.5c12.7 0 22.8-3.8 30.5-11.5s11.5-17.8 11.5-30.5V91c0-10.7-3.3-18.3-10-23s-13.3-7-20-7c-21.3 0-33.7 9.7-37 29s-18 31-44 35zm192 819.5c0-10.7-2.8-17-8.5-19s-12.5-3-20.5-3h-141c2-21.3 11-35.7 27-43s36.7-18.3 62-33c26-15.3 45.3-31.2 58-47.5s19-40.5 19-72.5c0-21.3-10.3-42.3-31-63s-50-31-88-31c-34.7 0-64 9.5-88 28.5s-36 42.2-36 69.5c0 10.7 3.5 18.3 10.5 23s14.8 7 23.5 7 15.3-2.2 20-6.5 8-10.5 10-18.5c4-19.3 11.2-32.8 21.5-40.5 10.3-7.7 23.2-11.5 38.5-11.5 12.7 0 24.3 4.2 35 12.5s16 19.8 16 34.5c0 19.3-6.5 33.8-19.5 43.5s-36.5 25.2-70.5 46.5c-30 19.3-52.3 37.7-67 55s-22 34.7-22 52c0 8 3.2 15.7 9.5 23s15.8 11 28.5 11h175c12.7 2 22.2 2.3 28.5 1s9.5-7.3 9.5-18zM949.9 525H159.1c-33.4 0-61.5 12.2-84.4 36.5S40.4 616.3 40.4 653v341h78.8V653c0-13.3 3.7-23.8 11.1-31.5 7.4-7.7 17-11.5 28.7-11.5h790.8c12.4 0 22.1 3.8 29.2 11.5s10.7 18.2 10.7 31.5v341h78.8V653c0-36.7-11.3-67.2-33.8-91.5-22.5-24.3-50.8-36.5-84.8-36.5z"/></svg>